<svg xmlns="http://www.w3.org/2000/svg" width="18" height="20" fill="none" viewBox="0 0 18 20"><path fill="#2F2F2F" fill-rule="evenodd" d="M16 1.98947H15V0H13V1.98947H5V0H3V1.98947H2C0.89 1.98947 0.01 2.88474 0.01 3.97895L0 17.9053C0 18.9995 0.89 19.8947 2 19.8947H16C17.1 19.8947 18 18.9995 18 17.9053V3.97895C18 2.88474 17.1 1.98947 16 1.98947ZM12.47 8.95263L7.59 13.8069L5.47 11.6981L4.41 12.7525L7.59 15.9158L13.53 10.0071L12.47 8.95263ZM2 17.9053H16V6.96316H2V17.9053Z" clip-rule="evenodd"/></svg>