<svg width="32" height="32" viewBox="0 0 32 32" fill="none" xmlns="http://www.w3.org/2000/svg">
<g id="youtube-2">
<path id="Oval" d="M16 32C24.8366 32 32 24.8366 32 16C32 7.16344 24.8366 0 16 0C7.16344 0 0 7.16344 0 16C0 24.8366 7.16344 32 16 32Z" fill="#D42428"/>
<path id="Shape" fill-rule="evenodd" clip-rule="evenodd" d="M22.0018 10.4727C23.3464 10.4727 24.4364 11.5576 24.4364 12.8962H24.4362V19.3947C24.4362 20.733 23.3465 21.8182 22.0016 21.8182H10.5796C9.23538 21.8182 8.14545 20.7333 8.14545 19.3947V12.8962C8.14545 11.5579 9.23518 10.4727 10.5796 10.4727H22.0018ZM14.6613 12.7832V18.8869L19.3138 15.8352L14.6613 12.7832Z" fill="white"/>
</g>
</svg>
