<svg xmlns="http://www.w3.org/2000/svg" xmlns:xlink="http://www.w3.org/1999/xlink"><symbol id="icon-calendar" viewBox="0 0 18 20">
<path fill-rule="evenodd" clip-rule="evenodd" d="M16 1.98947H15V0H13V1.98947H5V0H3V1.98947H2C0.89 1.98947 0.01 2.88474 0.01 3.97895L0 17.9053C0 18.9995 0.89 19.8947 2 19.8947H16C17.1 19.8947 18 18.9995 18 17.9053V3.97895C18 2.88474 17.1 1.98947 16 1.98947ZM12.47 8.95263L7.59 13.8069L5.47 11.6981L4.41 12.7525L7.59 15.9158L13.53 10.0071L12.47 8.95263ZM2 17.9053H16V6.96316H2V17.9053Z" fill="#2F2F2F"/>
</symbol><symbol id="icon-checkbox-off" viewBox="0 0 16 16">
<path fill-rule="evenodd" clip-rule="evenodd" d="M1.77778 0H14.2222C15.2 0 16 0.8 16 1.77778V14.2222C16 15.2 15.2 16 14.2222 16H1.77778C0.8 16 0 15.2 0 14.2222V1.77778C0 0.8 0.8 0 1.77778 0ZM14.2222 14.2222V1.77778H1.77778V14.2222H14.2222Z" fill="#2F2F2F"/>
</symbol><symbol id="icon-checkbox-on" viewBox="0 0 16 16">
<path fill-rule="evenodd" clip-rule="evenodd" d="M1.77778 0H14.2222C15.2089 0 16 0.8 16 1.77778V14.2222C16 15.2 15.2089 16 14.2222 16H1.77778C0.791111 16 0 15.2 0 14.2222V1.77778C0 0.8 0.791111 0 1.77778 0ZM1.77778 8L6.22222 12.4444L14.2222 4.44444L12.9689 3.18222L6.22222 9.92889L3.03111 6.74667L1.77778 8Z" fill="#2F2F2F"/>
</symbol><symbol id="icon-clock" viewBox="0 0 18 18">
<path fill-rule="evenodd" clip-rule="evenodd" d="M8.991 0C4.023 0 0 4.032 0 9C0 13.968 4.023 18 8.991 18C13.968 18 18 13.968 18 9C18 4.032 13.968 0 8.991 0ZM9 16.2C5.022 16.2 1.8 12.978 1.8 9C1.8 5.022 5.022 1.8 9 1.8C12.978 1.8 16.2 5.022 16.2 9C16.2 12.978 12.978 16.2 9 16.2ZM8.1 4.5H9.45V9.225L13.5 11.628L12.825 12.735L8.1 9.9V4.5Z" fill="#2F2F2F"/>
</symbol><symbol id="icon-location" viewBox="0 0 12 18">
<path fill-rule="evenodd" clip-rule="evenodd" d="M0 6.13846C0 2.74477 2.68286 0 6 0C9.31714 0 12 2.74477 12 6.13846C12 10.7423 6 17.5385 6 17.5385C6 17.5385 0 10.7423 0 6.13846ZM3.85714 6.13846C3.85714 7.34862 4.81714 8.33077 6 8.33077C7.18286 8.33077 8.14286 7.34862 8.14286 6.13846C8.14286 4.92831 7.18286 3.94615 6 3.94615C4.81714 3.94615 3.85714 4.92831 3.85714 6.13846Z" fill="#2F2F2F"/>
</symbol></svg>