<svg xmlns="http://www.w3.org/2000/svg" xmlns:xlink="http://www.w3.org/1999/xlink"><symbol id="icon-calendar" viewBox="0 0 18 20">
<path fill-rule="evenodd" clip-rule="evenodd" d="M16 1.98947H15V0H13V1.98947H5V0H3V1.98947H2C0.89 1.98947 0.01 2.88474 0.01 3.97895L0 17.9053C0 18.9995 0.89 19.8947 2 19.8947H16C17.1 19.8947 18 18.9995 18 17.9053V3.97895C18 2.88474 17.1 1.98947 16 1.98947ZM12.47 8.95263L7.59 13.8069L5.47 11.6981L4.41 12.7525L7.59 15.9158L13.53 10.0071L12.47 8.95263ZM2 17.9053H16V6.96316H2V17.9053Z" fill="#2F2F2F"/>
</symbol><symbol id="icon-checkbox-off" viewBox="0 0 16 16">
<path fill-rule="evenodd" clip-rule="evenodd" d="M1.77778 0H14.2222C15.2 0 16 0.8 16 1.77778V14.2222C16 15.2 15.2 16 14.2222 16H1.77778C0.8 16 0 15.2 0 14.2222V1.77778C0 0.8 0.8 0 1.77778 0ZM14.2222 14.2222V1.77778H1.77778V14.2222H14.2222Z" fill="#2F2F2F"/>
</symbol><symbol id="icon-checkbox-on" viewBox="0 0 16 16">
<path fill-rule="evenodd" clip-rule="evenodd" d="M1.77778 0H14.2222C15.2089 0 16 0.8 16 1.77778V14.2222C16 15.2 15.2089 16 14.2222 16H1.77778C0.791111 16 0 15.2 0 14.2222V1.77778C0 0.8 0.791111 0 1.77778 0ZM1.77778 8L6.22222 12.4444L14.2222 4.44444L12.9689 3.18222L6.22222 9.92889L3.03111 6.74667L1.77778 8Z" fill="#2F2F2F"/>
</symbol><symbol id="icon-clock" viewBox="0 0 18 18">
<path fill-rule="evenodd" clip-rule="evenodd" d="M8.991 0C4.023 0 0 4.032 0 9C0 13.968 4.023 18 8.991 18C13.968 18 18 13.968 18 9C18 4.032 13.968 0 8.991 0ZM9 16.2C5.022 16.2 1.8 12.978 1.8 9C1.8 5.022 5.022 1.8 9 1.8C12.978 1.8 16.2 5.022 16.2 9C16.2 12.978 12.978 16.2 9 16.2ZM8.1 4.5H9.45V9.225L13.5 11.628L12.825 12.735L8.1 9.9V4.5Z" fill="#2F2F2F"/>
</symbol><symbol id="icon-github" viewBox="0 0 32 32">
<g id="github-logo">
<path id="Path" d="M29.8537 8.16855C28.4229 5.65563 26.4822 3.66615 24.031 2.19966C21.5794 0.733096 18.903 0 15.9999 0C13.0971 0 10.4198 0.73332 7.96873 2.19966C5.51729 3.66608 3.57662 5.65563 2.14585 8.16855C0.715309 10.6814 0 13.4254 0 16.4006C0 19.9745 1.01718 23.1882 3.05205 26.0425C5.0867 28.8971 7.71517 30.8724 10.9372 31.9685C11.3123 32.0399 11.5899 31.9897 11.7705 31.8193C11.9511 31.6486 12.0412 31.4348 12.0412 31.1788C12.0412 31.1361 12.0377 30.7519 12.0307 30.0257C12.0236 29.2995 12.0202 28.6659 12.0202 28.1253L11.541 28.2103C11.2355 28.2677 10.8501 28.292 10.3848 28.2851C9.91969 28.2785 9.43686 28.2285 8.93695 28.1356C8.43682 28.0435 7.97165 27.83 7.54107 27.4954C7.1107 27.1608 6.80518 26.7229 6.62458 26.1822L6.41626 25.6908C6.2774 25.3637 6.05879 25.0002 5.76013 24.6018C5.46147 24.2031 5.15945 23.9328 4.85393 23.7904L4.70807 23.6834C4.61087 23.6123 4.52068 23.5265 4.43728 23.4269C4.35395 23.3274 4.29156 23.2277 4.2499 23.1279C4.20816 23.0281 4.24275 22.9462 4.35402 22.8819C4.4653 22.8177 4.6664 22.7865 4.9582 22.7865L5.37471 22.8503C5.6525 22.9074 5.99611 23.0778 6.40597 23.3627C6.81561 23.6474 7.15236 24.0175 7.41629 24.4729C7.73589 25.0568 8.12095 25.5017 8.57255 25.8078C9.02378 26.114 9.47874 26.2668 9.93698 26.2668C10.3952 26.2668 10.791 26.2312 11.1245 26.1603C11.4576 26.0891 11.7701 25.9821 12.0619 25.8398C12.1869 24.8855 12.5272 24.1524 13.0826 23.64C12.291 23.5547 11.5794 23.4263 10.9472 23.2555C10.3155 23.0846 9.66262 22.8071 8.98912 22.4223C8.31526 22.0381 7.75625 21.5609 7.31194 20.9917C6.86757 20.4222 6.50287 19.6745 6.21837 18.7493C5.93372 17.8238 5.79136 16.7561 5.79136 15.546C5.79136 13.8231 6.34008 12.3569 7.4373 11.1466C6.92331 9.85128 6.97184 8.39915 7.58302 6.79039C7.98581 6.66212 8.58313 6.75838 9.37469 7.07859C10.1664 7.39895 10.7461 7.67339 11.1143 7.90092C11.4825 8.12838 11.7775 8.32114 11.9997 8.47746C13.2916 8.10744 14.6248 7.92239 15.9997 7.92239C17.3746 7.92239 18.7081 8.10744 20.0001 8.47746L20.7917 7.96517C21.333 7.62334 21.9723 7.31009 22.708 7.02533C23.4441 6.74073 24.007 6.66234 24.396 6.79062C25.0208 8.39945 25.0765 9.85151 24.5623 11.1469C25.6595 12.3571 26.2084 13.8237 26.2084 15.5463C26.2084 16.7563 26.0656 17.8274 25.7813 18.76C25.4968 19.6928 25.1289 20.4398 24.6777 21.0024C24.2259 21.565 23.6634 22.0384 22.9899 22.4225C22.3162 22.807 21.6631 23.0845 21.0314 23.2555C20.3993 23.4265 19.6877 23.555 18.8961 23.6404C19.6181 24.2808 19.9791 25.2917 19.9791 26.6726V31.1782C19.9791 31.4342 20.0659 31.6479 20.2398 31.8187C20.4133 31.9891 20.6875 32.0393 21.0625 31.9679C24.2851 30.8719 26.9135 28.8965 28.9481 26.0419C30.9825 23.1876 32 19.9739 32 16.4C31.9993 13.4252 31.2836 10.6814 29.8537 8.16855Z" fill="black"/>
</g>
</symbol><symbol id="icon-location" viewBox="0 0 12 18">
<path fill-rule="evenodd" clip-rule="evenodd" d="M0 6.13846C0 2.74477 2.68286 0 6 0C9.31714 0 12 2.74477 12 6.13846C12 10.7423 6 17.5385 6 17.5385C6 17.5385 0 10.7423 0 6.13846ZM3.85714 6.13846C3.85714 7.34862 4.81714 8.33077 6 8.33077C7.18286 8.33077 8.14286 7.34862 8.14286 6.13846C8.14286 4.92831 7.18286 3.94615 6 3.94615C4.81714 3.94615 3.85714 4.92831 3.85714 6.13846Z" fill="#2F2F2F"/>
</symbol><symbol id="icon-telegram" viewBox="0 0 32 32">
<g id="telegram">
<path id="Oval" d="M16 32C24.8366 32 32 24.8366 32 16C32 7.16344 24.8366 0 16 0C7.16344 0 0 7.16344 0 16C0 24.8366 7.16344 32 16 32Z" fill="#039BE5"/>
<path id="Path" d="M7.21272 15.6049L22.6921 9.67258C23.4105 9.4146 24.038 9.84679 23.8052 10.9266L23.8065 10.9253L21.1709 23.2673C20.9756 24.1423 20.4524 24.3551 19.7206 23.9428L15.707 21.0026L13.771 22.8564C13.557 23.0691 13.3764 23.2487 12.9616 23.2487L13.2466 19.1887L20.6852 12.5091C21.009 12.2258 20.613 12.0662 20.1862 12.3482L10.9936 18.1009L7.03077 16.8722C6.17051 16.6009 6.15178 16.0171 7.21272 15.6049Z" fill="white"/>
</g>
</symbol><symbol id="icon-youtube" viewBox="0 0 32 32">
<g id="youtube-2">
<path id="Oval" d="M16 32C24.8366 32 32 24.8366 32 16C32 7.16344 24.8366 0 16 0C7.16344 0 0 7.16344 0 16C0 24.8366 7.16344 32 16 32Z" fill="#D42428"/>
<path id="Shape" fill-rule="evenodd" clip-rule="evenodd" d="M22.0018 10.4727C23.3464 10.4727 24.4364 11.5576 24.4364 12.8962H24.4362V19.3947C24.4362 20.733 23.3465 21.8182 22.0016 21.8182H10.5796C9.23538 21.8182 8.14545 20.7333 8.14545 19.3947V12.8962C8.14545 11.5579 9.23518 10.4727 10.5796 10.4727H22.0018ZM14.6613 12.7832V18.8869L19.3138 15.8352L14.6613 12.7832Z" fill="white"/>
</g>
</symbol></svg>