<svg width="32" height="32" viewBox="0 0 32 32" fill="none" xmlns="http://www.w3.org/2000/svg">
<g id="telegram">
<path id="Oval" d="M16 32C24.8366 32 32 24.8366 32 16C32 7.16344 24.8366 0 16 0C7.16344 0 0 7.16344 0 16C0 24.8366 7.16344 32 16 32Z" fill="#039BE5"/>
<path id="Path" d="M7.21272 15.6049L22.6921 9.67258C23.4105 9.4146 24.038 9.84679 23.8052 10.9266L23.8065 10.9253L21.1709 23.2673C20.9756 24.1423 20.4524 24.3551 19.7206 23.9428L15.707 21.0026L13.771 22.8564C13.557 23.0691 13.3764 23.2487 12.9616 23.2487L13.2466 19.1887L20.6852 12.5091C21.009 12.2258 20.613 12.0662 20.1862 12.3482L10.9936 18.1009L7.03077 16.8722C6.17051 16.6009 6.15178 16.0171 7.21272 15.6049Z" fill="white"/>
</g>
</svg>
